<?xml version="1.0" encoding="UTF-8"?>
<svg width="59px" height="59px" viewBox="0 0 59 59" version="1.1" xmlns="http://www.w3.org/2000/svg" xmlns:xlink="http://www.w3.org/1999/xlink">
    <!-- Generator: Sketch 54.1 (76490) - https://sketchapp.com -->
    <title>形状</title>
    <desc>Created with Sketch.</desc>
    <defs>
        <linearGradient x1="100%" y1="0%" x2="0%" y2="100%" id="linearGradient-1">
            <stop stop-color="#C82424" offset="0%"></stop>
            <stop stop-color="#2755C7" offset="100%"></stop>
        </linearGradient>
    </defs>
    <g id="-组件" stroke="none" stroke-width="1" fill="none" fill-rule="evenodd">
        <g id="2" transform="translate(-183.000000, 0.000000)" fill="url(#linearGradient-1)" fill-rule="nonzero">
            <g id="活动" transform="translate(183.000000, 0.000000)">
                <path d="M29.5,0 C13.2075793,0 0,13.2075641 0,29.4999663 C0,45.7923684 13.2075793,59 29.5,59 C45.7924208,59 59.0000001,45.7924359 59,29.4999663 C59,13.2075641 45.7924207,3.74958045e-15 29.5,0 Z M50.8072553,14.9790412 C52.313644,17.1824969 53.4869307,19.6303758 54.2554564,22.2499384 C50.9972424,20.1036206 48.0151951,17.5865144 45.4747176,14.7115197 C47.2562415,14.6795772 49.0378733,14.7689577 50.8072553,14.9790412 L50.8072553,14.9790412 Z M42.6851564,11.1443867 C41.5301052,9.46253371 40.5195199,7.6802504 39.6773092,5.8003059 C42.5926955,7.05706922 45.2313072,8.83651591 47.4754239,11.0200476 C45.8776005,10.9713002 44.2782992,11.0128126 42.6851564,11.1443867 L42.6851564,11.1443867 Z M35.1116763,4.32235273 C36.0106873,6.92921813 37.1943749,9.38439119 38.6164074,11.6821987 C36.698671,12.0323653 34.8080389,12.5174414 32.9586021,13.1338117 C30.4171789,9.97907094 27.6499056,6.9821686 24.6681285,4.16154268 C26.2608719,3.85825701 27.8786383,3.70564327 29.5,3.70572283 C31.3874868,3.70530943 33.2693159,3.91209115 35.1116763,4.32235273 L35.1116763,4.32235273 Z M20.4756482,5.33617877 C23.6700379,8.20813425 26.6229758,11.2839895 29.3212244,14.5407815 C26.5128873,15.7828213 23.8313209,17.343442 21.3249505,19.2121751 C20.7035987,19.675749 20.0953521,20.1566342 19.5009261,20.6542651 C17.1382786,17.3308123 14.1336733,14.4172529 10.5312809,12.0402223 C13.2510068,9.08782803 16.6488914,6.77002899 20.4756482,5.33617877 L20.4756482,5.33617877 Z M8.21206088,14.9512152 C11.6911948,17.1960047 14.5502536,19.9816455 16.7484438,23.1795435 C11.7508992,28.2094335 8.24380418,34.398358 6.53040856,41.2299149 C4.72502488,37.7089784 3.70572707,33.7212808 3.70572707,29.4999663 C3.70579462,24.1066496 5.3707648,19.0955355 8.21206088,14.9512152 Z M9.42438498,45.6759989 C10.4845439,38.4128685 13.715202,31.7855492 18.7111932,26.4819917 C20.9172854,30.8219721 22.0604496,35.7441376 22.0604496,40.992786 C22.0604496,45.2729945 21.2318818,49.414343 19.5974392,53.3164013 C15.5994036,51.6477859 12.1085854,49.0006674 9.42438498,45.6759989 L9.42438498,45.6759989 Z M23.1202033,54.4950897 C24.8764862,50.2122472 25.7663118,45.6768769 25.7663118,40.9927184 C25.7663118,34.757935 24.2982177,28.9125131 21.4927848,23.8242021 C22.1558148,23.2536068 22.8385537,22.7063215 23.5397553,22.1833452 C26.0833396,20.286516 28.8251509,18.7379847 31.704809,17.5515968 C38.7099488,26.8219149 43.7479492,37.4143739 46.5328503,48.8529599 C41.9859256,52.8595684 36.0223715,55.2941421 29.5,55.2941421 C27.2987706,55.2941421 25.1612979,55.0163547 23.1202033,54.4950897 L23.1202033,54.4950897 Z M49.5502204,45.707472 C46.6534748,35.0212015 41.851388,25.0832617 35.3646096,16.2603887 C37.1967022,15.7193285 39.0671384,15.3177875 40.9598739,15.0592099 C44.7543471,19.9657738 49.6831371,24.0254679 55.1876289,27.1674437 C55.2580823,27.9429393 55.2936437,28.7212096 55.2942054,29.4998987 C55.2942054,35.6347921 53.1400506,41.2750985 49.5502204,45.707472 L49.5502204,45.707472 Z" id="形状"></path>
            </g>
        </g>
    </g>
</svg>