<?xml version="1.0" encoding="UTF-8"?>
<svg width="59px" height="56px" viewBox="0 0 59 56" version="1.1" xmlns="http://www.w3.org/2000/svg" xmlns:xlink="http://www.w3.org/1999/xlink">
    <!-- Generator: Sketch 54.1 (76490) - https://sketchapp.com -->
    <title>数据</title>
    <desc>Created with Sketch.</desc>
    <defs>
        <linearGradient x1="100%" y1="4.95547257%" x2="0%" y2="95.0445274%" id="linearGradient-1">
            <stop stop-color="#D72020" offset="0%"></stop>
            <stop stop-color="#3368EB" offset="100%"></stop>
        </linearGradient>
    </defs>
    <g id="-组件" stroke="none" stroke-width="1" fill="none" fill-rule="evenodd">
        <g id="2" transform="translate(-64.000000, 0.000000)" fill="url(#linearGradient-1)" fill-rule="nonzero">
            <g id="数据" transform="translate(64.000000, 0.000000)">
                <path d="M57.8053578,2.87337554 C56.5592829,1.07446739 54.5093214,0 52.322101,0 C50.9587714,0 49.6441009,0.413298357 48.5198761,1.19565914 C45.4999116,3.29940957 44.749212,7.47520677 46.8470215,10.5041196 C47.08083,10.8412114 47.3451586,11.1559677 47.6366484,11.4443887 L44.2600543,19.018432 C43.5253003,18.748791 42.7489755,18.61073 41.9665276,18.6105531 C40.6022519,18.6105531 39.2876489,19.0239192 38.1643027,19.8062123 C36.3675705,21.0574882 35.3743194,23.0414017 35.3057239,25.0811352 L25.6663834,27.1242559 C25.4677387,26.5580541 25.1937668,26.0213162 24.8518864,25.5285759 C23.6049329,23.7305485 21.5549037,22.6569617 19.367751,22.6569617 C18.0044215,22.6569617 16.6897509,23.0702601 15.5654586,23.8526208 C12.5454941,25.9572519 11.7956731,30.1321685 13.8934826,33.1610813 C14.0543391,33.3927755 14.2296589,33.6140362 14.4183911,33.8235374 L8.77212674,42.965283 C8.09405208,42.7395443 7.3842155,42.6244065 6.66972162,42.6242661 C5.30544596,42.6242661 3.99084301,43.0375645 2.86749678,43.8199253 C1.40394329,44.8383017 0.423194924,46.3677293 0.107384683,48.1268724 C-0.208425493,49.8851349 0.177737458,51.6605363 1.19464216,53.1266245 C2.44071712,54.9255326 4.49074622,56 6.67789902,56 C8.04122856,56 9.3558991,55.5867016 10.4801239,54.8043409 C11.9436774,53.7850161 12.9235472,52.2556562 13.2393574,50.4973937 C13.5551676,48.7391989 13.1690046,46.9628491 12.1520999,45.4967611 C12.0484111,45.3474911 11.9387024,45.2025145 11.8232465,45.0621914 L17.5568941,35.778999 C18.1492545,35.9473076 18.7619874,36.0327044 19.3776855,36.0327632 C20.7410151,36.0327632 22.0556856,35.6193971 23.1799104,34.8371041 C24.5881818,33.8559184 25.5027,32.4245823 25.8653444,30.8693448 L36.2126053,28.676174 C36.2999177,28.8256004 36.3929341,28.9716037 36.4914482,29.1138598 C37.7384017,30.9118873 39.7884308,31.985474 41.9746374,31.985474 C43.3389131,31.985474 44.653516,31.5721079 45.7769299,30.7898148 C48.7977729,28.6860644 49.547594,24.5112156 47.4497844,21.482235 C47.4016584,21.4131876 47.3522474,21.345049 47.3015774,21.2778552 L50.8943659,13.2188417 C51.3659295,13.3230679 51.8473873,13.3756735 52.3302784,13.3757338 C53.694554,13.3757338 55.009157,12.9623677 56.1325032,12.1800747 C57.5960567,11.1616982 58.5768051,9.63227067 58.8926153,7.87312753 C59.2084255,6.114865 58.8222625,4.33946364 57.8053578,2.87337554 L57.8053578,2.87337554 Z M9.60223509,49.8408989 C9.46146202,50.625021 9.02386923,51.306987 8.37150129,51.7619472 C7.06318344,52.6745095 5.13135504,52.3145923 4.23001531,51.0130514 C3.77613531,50.3591308 3.60380153,49.5668796 3.7445746,48.7836381 C3.88534767,47.999516 4.32294046,47.31755 4.976187,46.8625899 C5.4769688,46.5134438 6.06256594,46.3289804 6.66978921,46.3289805 C7.23744503,46.329269 7.79321712,46.4920213 8.2717504,46.7980988 C8.33862835,46.8540449 8.40933443,46.9052257 8.48334931,46.9512651 C8.49260801,46.9570232 8.50220466,46.961833 8.51159854,46.9674556 C8.744193,47.1503932 8.94818168,47.3671746 9.11679438,47.6106051 C9.57067438,48.2644579 9.74300817,49.0567091 9.60223509,49.8408989 L9.60223509,49.8408989 Z M21.0712877,31.7946428 C19.7620913,32.7081535 17.8302629,32.3463395 16.9288556,31.0475759 C15.9931844,29.6963117 16.3279175,27.8341319 17.6741488,26.8952854 C18.1758092,26.5461394 18.7614063,26.3616759 19.367751,26.3616759 C20.3449176,26.3616759 21.2607874,26.8410235 21.8165809,27.6433006 C22.1510369,28.1245008 22.3355486,28.6943475 22.3467608,29.2807101 C22.3459498,29.3121427 22.3459498,29.3437108 22.3467608,29.3753467 C22.3360153,30.3080963 21.8918671,31.2226909 21.0712877,31.7946428 L21.0712877,31.7946428 Z M43.6682396,27.7472857 C42.3617465,28.6580189 40.4280934,28.3016922 39.5267537,27.000219 C38.5910824,25.6489547 38.9258155,23.7867749 40.2729253,22.8488768 C40.7737072,22.4997308 41.3593043,22.3152674 41.9665276,22.3152674 C42.9428155,22.3152674 43.8586178,22.7937342 44.4144113,23.5959436 C45.3500826,24.9471401 45.0153495,26.8093199 43.6682396,27.7472857 L43.6682396,27.7472857 Z M55.255493,7.2164973 C55.1147199,8.00061939 54.6771271,8.6825854 54.0238806,9.13754556 C52.7173875,10.0492272 50.7828557,9.69107139 49.8823947,8.39047872 C48.9467234,7.03921451 49.2814565,5.17703471 50.6285663,4.23818823 C51.1302267,3.88910996 51.7158238,3.70457875 52.3221686,3.70457875 C53.2993352,3.70457875 54.2142588,4.18392632 54.7700523,4.98708407 C55.2238647,5.64093686 55.3961985,6.43325582 55.255493,7.2164973 Z" id="形状"></path>
            </g>
        </g>
    </g>
</svg>