<?xml version="1.0" encoding="UTF-8"?>
<svg width="40px" height="40px" viewBox="0 0 40 40" version="1.1" xmlns="http://www.w3.org/2000/svg" xmlns:xlink="http://www.w3.org/1999/xlink">
    <!-- Generator: Sketch 54.1 (76490) - https://sketchapp.com -->
    <title>社区_line</title>
    <desc>Created with Sketch.</desc>
    <g id="-组件" stroke="none" stroke-width="1" fill="none" fill-rule="evenodd">
        <g id="2" transform="translate(-502.000000, -284.000000)" fill="#BBBBBB" fill-rule="nonzero">
            <g id="社区_line" transform="translate(502.000000, 284.000000)">
                <path d="M20,39.9844028 C8.96295082,39.9844028 0.0155971897,31.0370023 0.0155971897,20 C0.0155971897,8.96295082 8.96299766,0.0155971897 20,0.0155971897 C31.0370492,0.0155971897 39.9844028,8.96295082 39.9844028,20 C39.9844028,31.0370492 31.0370492,39.9844028 20,39.9844028 Z M20,36.9867447 C29.3814988,36.9867447 36.9867447,29.3814988 36.9867447,20 C36.9867447,10.6185012 29.3814988,3.01325527 20,3.01325527 C10.6185012,3.01325527 3.01325527,10.6185012 3.01325527,20 C3.01325527,29.3814988 10.6185012,36.9867447 20,36.9867447 Z M13.2958782,28.070726 C12.6593443,27.5415457 12.5724122,26.596534 13.1016393,25.96 C13.6308665,25.323466 14.5758782,25.236534 15.2123653,25.7657611 C16.5486183,26.876815 18.2248244,27.4941452 20,27.4941452 C21.7747541,27.4941452 23.4505855,26.877096 24.7866979,25.7665574 C25.4233255,25.2374239 26.3682904,25.3245433 26.8974239,25.9611241 C27.4265574,26.5977049 27.3394379,27.5427166 26.7028571,28.0718501 C24.8332553,29.6257611 22.4812646,30.4918033 20,30.4918033 C17.5181733,30.4918033 15.1656206,29.6253864 13.2958782,28.0707728 L13.2958782,28.070726 Z" id="形状"></path>
            </g>
        </g>
    </g>
</svg>