<?xml version="1.0" encoding="UTF-8"?>
<svg width="59px" height="59px" viewBox="0 0 59 59" version="1.1" xmlns="http://www.w3.org/2000/svg" xmlns:xlink="http://www.w3.org/1999/xlink">
    <!-- Generator: Sketch 54.1 (76490) - https://sketchapp.com -->
    <title>社区_line</title>
    <desc>Created with Sketch.</desc>
    <defs>
        <linearGradient x1="85.9812979%" y1="10.9292663%" x2="17.1009888%" y2="90.9898433%" id="linearGradient-1">
            <stop stop-color="#9F395C" offset="0%"></stop>
            <stop stop-color="#3651B8" offset="100%"></stop>
        </linearGradient>
    </defs>
    <g id="-组件" stroke="none" stroke-width="1" fill="none" fill-rule="evenodd">
        <g id="2" transform="translate(-492.000000, 0.000000)" fill="url(#linearGradient-1)" fill-rule="nonzero">
            <g id="社区_line" transform="translate(492.000000, 0.000000)">
                <path d="M29.3292073,58.5975 C13.1648221,58.5975 0.0609146341,45.493524 0.0609146341,29.3292073 C0.0609146341,13.1648221 13.1648907,0.0609146341 29.3292073,0.0609146341 C45.4935926,0.0609146341 58.5975,13.1648221 58.5975,29.3292073 C58.5975,45.4935926 45.4935926,58.5975 29.3292073,58.5975 Z M29.3292073,54.2072595 C43.0689451,54.2072595 54.2072595,43.0689451 54.2072595,29.3292073 C54.2072595,15.5894696 43.0689451,4.45115511 29.3292073,4.45115511 C15.5894696,4.45115511 4.45115511,15.5894696 4.45115511,29.3292073 C4.45115511,43.0689451 15.5894696,54.2072595 29.3292073,54.2072595 Z M19.5106403,41.1492438 C18.5784002,40.3742292 18.4510832,38.9902059 19.2261664,38.0579657 C20.0012497,37.1257256 21.385273,36.9984086 22.3174445,37.7734919 C24.2744628,39.4006934 26.7293618,40.3048085 29.3292073,40.3048085 C31.9284355,40.3048085 34.3827857,39.4011049 36.3395982,37.774658 C37.2719755,36.999712 38.6559302,37.1273034 39.4308763,38.0596121 C40.2058223,38.9919208 40.0782309,40.3759441 39.1459222,41.1508902 C36.4077841,43.4266811 32.9631603,44.695049 29.3292073,44.695049 C25.6944312,44.695049 22.2489842,43.4261323 19.5106403,41.1493124 L19.5106403,41.1492438 Z" id="形状"></path>
            </g>
        </g>
    </g>
</svg>