<?xml version="1.0" encoding="UTF-8"?>
<svg width="60px" height="64px" viewBox="0 0 60 64" version="1.1" xmlns="http://www.w3.org/2000/svg" xmlns:xlink="http://www.w3.org/1999/xlink">
    <!-- Generator: Sketch 54.1 (76490) - https://sketchapp.com -->
    <title>商城1</title>
    <desc>Created with Sketch.</desc>
    <defs>
        <linearGradient x1="87.2639717%" y1="0%" x2="13.6766096%" y2="93.3560624%" id="linearGradient-1">
            <stop stop-color="#A52F48" offset="0%"></stop>
            <stop stop-color="#3457C5" offset="100%"></stop>
        </linearGradient>
    </defs>
    <g id="-组件" stroke="none" stroke-width="1" fill="none" fill-rule="evenodd">
        <g id="2" transform="translate(-645.000000, 0.000000)" fill="url(#linearGradient-1)" fill-rule="nonzero">
            <g id="商城1" transform="translate(645.000000, -0.000000)">
                <path d="M46.8647596,4.19639423 C47.6320673,4.19639423 48.3791827,4.34783654 49.0815865,4.65086538 C49.7544231,4.94451923 50.3717308,5.36134615 50.8952885,5.89139423 C51.4195673,6.42144231 51.830625,7.03694712 52.1205288,7.72817308 C52.4198077,8.43814904 52.5705288,9.19586538 52.5705288,9.9721875 C52.5705288,10.0383173 52.5705288,10.1046635 52.5791827,10.1616346 L55.4133173,53.3485096 C55.4039423,54.0963462 55.2539423,54.8261538 54.9640385,55.5076442 C54.6741346,56.1992308 54.2623558,56.814375 53.7387981,57.3444231 C53.2152404,57.8744712 52.6073077,58.2912981 51.924375,58.5848077 C51.2226923,58.8884135 50.4748558,59.0391346 49.7075481,59.0391346 L9.79737981,59.0391346 C9.03043269,59.0391346 8.28209135,58.8884135 7.58040865,58.5848077 C6.89783654,58.2912981 6.28954327,57.8744712 5.76620192,57.3444231 C5.24213942,56.814375 4.83072115,56.1992308 4.54081731,55.5076442 C4.25091346,54.8261538 4.10127404,54.0963462 4.09189904,53.3485096 L6.93540865,10.1522596 C6.93540865,10.0859135 6.94478365,10.0195673 6.94478365,9.9628125 C6.94478365,9.18634615 7.0940625,8.42891827 7.39370192,7.71879808 C7.68360577,7.02778846 8.09502404,6.41206731 8.61894231,5.881875 C9.1425,5.35168269 9.75057692,4.93521635 10.4333654,4.64134615 C11.1348317,4.33882212 11.8832452,4.18701923 12.649976,4.18701923 L46.8648317,4.18701923 L46.8647596,4.19639423 Z M29.7572596,29.2899519 C25.3672356,29.2899519 21.2397115,27.559399 18.1355048,24.4167548 C15.0312981,21.2739663 13.3216587,17.0959615 13.3216587,12.6517067 C13.3216587,12.631875 13.321875,12.6122596 13.3222356,12.5925721 L13.3222356,12.6033894 L17.3639423,12.6127644 C17.3639423,12.629351 17.3639423,12.6455769 17.363726,12.6621635 C17.3689904,19.5755048 22.9267067,25.198125 29.7572596,25.198125 C36.5873077,25.198125 42.1445192,19.5765865 42.150649,12.6636058 C42.1502885,12.6468029 42.1499279,12.6322356 42.1499279,12.6174519 L46.1919952,12.5989183 L46.1919952,12.5852163 C46.1923558,12.609375 46.1923558,12.6302885 46.1923558,12.6517067 C46.1923558,17.0959615 44.4832212,21.2739663 41.3790144,24.4167548 C38.274375,27.5591827 34.1472837,29.2899519 29.7572596,29.2899519 Z M47.5794231,0.0385817308 L11.9343029,0.0385817308 C7.01170673,0.0385817308 3.02286058,4.07668269 3.02286058,9.06 L0.0495432692,54.1664423 C0.0495432692,59.1503365 4.03838942,63.1880769 8.96098558,63.1880769 L50.5534615,63.1880769 C55.4760577,63.1880769 59.4647596,59.1503365 59.4647596,54.1664423 L56.4907212,9.06 C56.4907212,4.07668269 52.5020192,0.0385817308 47.5794231,0.0385817308 L47.5794231,0.0385817308 L47.5794231,0.0385817308 Z" id="形状"></path>
            </g>
        </g>
    </g>
</svg>