<?xml version="1.0" encoding="UTF-8"?>
<svg width="40px" height="40px" viewBox="0 0 40 40" version="1.1" xmlns="http://www.w3.org/2000/svg" xmlns:xlink="http://www.w3.org/1999/xlink">
    <!-- Generator: Sketch 54.1 (76490) - https://sketchapp.com -->
    <title>形状</title>
    <desc>Created with Sketch.</desc>
    <g id="-组件" stroke="none" stroke-width="1" fill="none" fill-rule="evenodd">
        <g id="2" transform="translate(-359.000000, -10.000000)" fill="#BBBBBB" fill-rule="nonzero">
            <g id="扫码" transform="translate(359.000000, 10.000000)">
                <path d="M3.6367698,14.5499218 L3.6367698,3.63636364 L14.5470792,3.63189636 L14.551547,14.5454545 L3.6367698,14.5499218 L3.6367698,14.5499218 Z M14.551547,0 L3.63230202,0 C1.62627052,0.00446727719 0.00446777616,1.6260889 0,3.63189636 L0,14.5499218 C0.00446777616,16.5557293 1.62627052,18.1773509 3.63230202,18.1818182 L14.551547,18.1818182 C16.5575785,18.1773509 18.1793812,16.5557293 18.183849,14.5499218 L18.183849,3.63189636 C18.1793812,1.6260889 16.5531107,0.00446727719 14.551547,0 Z M3.6367698,36.3681036 L3.6367698,25.4545455 L14.5470792,25.4500782 L14.551547,36.3636364 L3.6367698,36.3681036 L3.6367698,36.3681036 Z M14.551547,21.8181818 L3.63230202,21.8181818 C1.62627052,21.8226491 0.00446777616,23.4442707 0,25.4500782 L0,36.3681036 C0.00446777616,38.3739111 1.62627052,39.9955327 3.63230202,40 L14.551547,40 C16.5575785,39.9955327 18.1793812,38.3739111 18.183849,36.3681036 L18.183849,25.4500782 C18.1793812,23.4442707 16.5531107,21.8226491 14.551547,21.8181818 Z M25.4529208,14.5499218 L25.4529208,3.63636364 L36.3632302,3.63189636 L36.367698,14.5454545 L25.4529208,14.5499218 Z M36.367698,0 L25.448453,0 C23.4424215,0.00446727719 21.8206188,1.6260889 21.816151,3.63189636 L21.816151,14.5499218 C21.8206188,16.5557293 23.4424215,18.1773509 25.448453,18.1818182 L36.367698,18.1818182 C38.3737295,18.1773509 39.9955322,16.5557293 40,14.5499218 L40,3.63189636 C40,1.6260889 38.3737295,0.00446727719 36.367698,0 Z M30.9080755,25.4545455 C29.9028259,25.4545455 29.0896906,26.2675899 29.0896906,27.2727273 L29.0896906,38.1818182 C29.0896906,39.1869556 29.9028259,40 30.9080755,40 C31.9133251,40 32.7264604,39.1869556 32.7264604,38.1818182 L32.7264604,27.2727273 C32.7264604,26.2675899 31.9133251,25.4545455 30.9080755,25.4545455 L30.9080755,25.4545455 Z M23.6345359,25.4545455 C22.6292863,25.4545455 21.816151,26.2675899 21.816151,27.2727273 L21.816151,38.1818182 C21.816151,39.1869556 22.6292863,40 23.6345359,40 C24.6397855,40 25.4529208,39.1869556 25.4529208,38.1818182 L25.4529208,27.2727273 C25.4529208,26.2675899 24.6397855,25.4545455 23.6345359,25.4545455 L23.6345359,25.4545455 Z M38.1816151,21.8181818 C37.1763655,21.8181818 36.3632302,22.6312263 36.3632302,23.6363636 L36.3632302,38.1818182 C36.3632302,39.1869556 37.1763655,40 38.1816151,40 C39.1868647,40 40,39.1869556 40,38.1818182 L40,23.6363636 C40,22.6312263 39.1868647,21.8181818 38.1816151,21.8181818 L38.1816151,21.8181818 Z" id="形状"></path>
            </g>
        </g>
    </g>
</svg>